# xmcd
#
# Track frame offsets: 
#        200
#        11707
#        23403
#        35403
#        47649
#        62655
#        74020
#        87427
#        99882
#        113537
#
# Disc length: 1657 seconds
#
# Revision: 0
# Processed by: cddbd v1.4PL0 Copyright (c) Steve Scherf et al.
# Submitted via: ExactAudioCopy v0.90b2
#
DISCID=7506770a
DTITLE=The Kendalls - Heaven's Just A Sin Away
DYEAR=1900
DGENRE=Country
TTITLE0=Heaven's Just A Sin Away
TTITLE1=Love Is A Long Hard Road
TTITLE2=Sweet Desire
TTITLE3=I'm Already Blue
TTITLE4=If You Let Him Drive You Crazy (He Will)
TTITLE5=Bye Bye Love
TTITLE6=Pittsburgh Stealers
TTITLE7=Pick Me Up On Your Down
TTITLE8=Thank God For The Radio
TTITLE9=I'd Dance Every Dance With You
EXTD=
EXTT0=
EXTT1=
EXTT2=
EXTT3=
EXTT4=
EXTT5=
EXTT6=
EXTT7=
EXTT8=
EXTT9=
PLAYORDER=
